<?xml version="1.0" encoding="utf-8"?><svg viewBox="0 0 33 32" xmlns="http://www.w3.org/2000/svg" xmlns:xlink="http://www.w3.org/1999/xlink"><style>:root>svg{display:none}:root>svg:target{display:block}</style><svg viewBox="0 0 32 32" id="facebook" xmlns="http://www.w3.org/2000/svg"><path d="M16.001 0C7.163 0 0 7.163 0 16.001 0 24.837 7.163 32 16.001 32 24.837 32 32 24.837 32 16.001 32 7.163 24.837 0 16.001 0zm6.103 8.147l-2.212.002c-1.736 0-2.072.825-2.072 2.035v2.668h4.138l-.001 4.18H17.82v10.722h-4.316V17.03H9.896v-4.178h3.608V9.77c0-3.576 2.185-5.524 5.376-5.524l3.226.004v3.897h-.002z" fill="inherit"/></svg><svg viewBox="0 0 32 32" id="googleplus" xmlns="http://www.w3.org/2000/svg"><path d="M16.607 11.023c0-2.218-1.322-5.668-3.872-5.668-.8 0-1.66.4-2.153 1.016-.523.65-.675 1.478-.675 2.282 0 2.062 1.198 5.479 3.843 5.479.768 0 1.594-.367 2.09-.86.706-.711.767-1.694.767-2.249zM14.947 19.123c-.246-.03-.399-.03-.706-.03-.277 0-1.938.06-3.227.494-.676.246-2.643.984-2.643 3.171 0 2.189 2.122 3.76 5.41 3.76 2.95 0 4.519-1.42 4.519-3.327 0-1.575-1.016-2.404-3.353-4.068z" fill="inherit"/><path d="M16.001 0C7.163 0 0 7.163 0 16.001 0 24.837 7.163 32 16.001 32 24.837 32 32 24.837 32 16.001 32 7.163 24.837 0 16.001 0zm-3.728 27.809c-4.458 0-6.608-2.124-6.608-4.406 0-1.107.553-2.677 2.366-3.756 1.905-1.17 4.488-1.324 5.871-1.42-.432-.553-.92-1.138-.92-2.092 0-.523.153-.832.305-1.2-.34.03-.675.06-.984.06-3.256 0-5.1-2.435-5.1-4.837 0-1.415.644-2.986 1.966-4.126 1.753-1.448 4.148-1.841 5.809-1.841h6.055l-1.998 1.256H17.13c.707.585 2.18 1.816 2.18 4.158 0 2.278-1.29 3.358-2.58 4.375-.401.4-.862.83-.862 1.51 0 .675.46 1.044.798 1.324l1.108.86c1.352 1.14 2.582 2.187 2.582 4.315 0 2.895-2.8 5.82-8.084 5.82zm13.263-12.185v3.1h-1.52v-3.1H20.94v-1.538h3.075v-3.079h1.52v3.079h3.092v1.538h-3.091z" fill="inherit"/></svg><svg viewBox="0 0 33 32" id="instagram" xmlns="http://www.w3.org/2000/svg"><path fill-rule="evenodd" clip-rule="evenodd" d="M21.334 15.95c0 2.533-2.179 4.587-4.866 4.587-2.688 0-4.868-2.054-4.868-4.587 0-2.536 2.18-4.59 4.868-4.59 2.687 0 4.866 2.054 4.866 4.59z" fill="inherit"/><path fill-rule="evenodd" clip-rule="evenodd" d="M24 16.206c0 3.922-3.373 7.102-7.533 7.102s-7.534-3.18-7.534-7.102c0-.704.11-1.383.312-2.024H7.02v9.961c0 .515.434.937.963.937h16.877c.529 0 .962-.422.962-.936v-9.962H23.69c.201.64.31 1.32.31 2.024zM21.981 11.495h2.739c.601 0 1.09-.478 1.09-1.062V7.892c0-.586-.489-1.062-1.09-1.062H21.98c-.601 0-1.09.476-1.09 1.062v2.541c0 .584.489 1.062 1.09 1.062z" fill="inherit"/><path fill-rule="evenodd" clip-rule="evenodd" d="M16.445 0C7.362 0 0 7.163 0 16.001 0 24.837 7.362 32 16.445 32c9.081 0 16.443-7.163 16.443-15.999C32.888 7.163 25.526 0 16.445 0zm9.006 27.79H7.437c-1.712 0-3.11-1.231-3.11-3.026V7.236c0-1.793 1.398-3.026 3.11-3.026h18.014c1.711 0 3.11 1.233 3.11 3.026v17.527c0 1.796-1.399 3.027-3.11 3.027z" fill="inherit"/></svg></svg>